<svg width="837" height="982" viewBox="0 0 837 982" fill="none" xmlns="http://www.w3.org/2000/svg">
<path d="M760.319 -1.13352e-06L767.227 81.8333C773.877 163.667 788.081 327.333 784.401 491C780.979 654.667 760.319 818.333 749.989 900.167L739.66 982L719 982L719 900.167C719 818.333 719 654.667 719 491C719 327.333 719 163.667 719 81.8333L719 -3.03122e-06L760.319 -1.13352e-06Z" fill="#161E2F"/>
<path d="M780.795 -2.07618e-06L791.094 81.8333C801.393 163.667 821.991 327.333 825.403 491C829.072 654.667 814.91 818.333 808.28 900.167L801.393 982L719 982L719 900.167C719 818.333 719 654.667 719 491C719 327.333 719 163.667 719 81.8333L719 -4.91425e-06L780.795 -2.07618e-06Z" fill="#161E2F" fill-opacity="0.5"/>
<path d="M760.016 -3.5285e-06L780.764 81.8333C801.512 163.667 843.008 327.333 836.07 491C829.392 654.667 773.632 818.333 746.205 900.167L718.52 982L718.52 900.167C718.52 818.333 718.52 654.667 718.52 491C718.52 327.333 718.52 163.667 718.52 81.8333L718.52 -5.43432e-06L760.016 -3.5285e-06Z" fill="#161E2F" fill-opacity="0.2"/>
<rect width="719.52" height="982" fill="#161E2F"/>
</svg>
